PathFileType	4	(X/Y/Z)	D:\Share\Shared_Data\Ergonomics\Sit To Stand Pertubation\S1\Unperturbed_NoHarness.trc
DataRate	CameraRate	NumFrames	NumMarkers	Units	OrigDataRate	OrigDataStartFrame	OrigNumFrames	
100	100	16	18	m	100	2051	241
Frame#	Time	R_Thigh_Med			R_ASIS			R_Pelvis			V_Sacral			L_Pelvis			L_ASIS			Clavical			R_Acromium			L_Acromium			Sternum			Torso			R_Thigh_Lat			R_Thigh			R_Shank_Med			R_Shank_Lat			R_Shank			R_Heel			R_Toe			
		X1	Y1	Z1	X2	Y2	Z2	X3	Y3	Z3	X4	Y4	Z4	X5	Y5	Z5	X6	Y6	Z6	X7	Y7	Z7	X8	Y8	Z8	X9	Y9	Z9	X10	Y10	Z10	X11	Y11	Z11	X12	Y12	Z12	X13	Y13	Z13	X14	Y14	Z14	X15	Y15	Z15	X16	Y16	Z16	X17	Y17	Z17	X18	Y18	Z18	

2051	20.5	0.35386273	0.41512546	0.028299639	0.41974698	0.8908595	0.084968948	0.34323489	0.90618726	0.1305556	0.24189114	0.9019411	-0.017670298	0.33974649	0.90915765	-0.17170451	0.4290636	0.90138507	-0.11481316	0.45537054	1.2441049	-0.017389309	0.39950458	1.3203561	0.13202005	0.3490979	1.2790759	-0.20876595	0.44295364	1.2582644	0.085529167	0.4494122	1.2516356	-0.07553965	0.38090353	0.4364921	0.14551697	0.44005182	0.61003314	0.08490062	0.3173414	0.099051064	0.068623543	0.29459726	0.10084039	0.14938885	0.33412607	0.30925757	0.16340598	0.24438571	0.033076519	0.092242424	0.4498764	0.044138012	0.12179485
2052	20.51	0.35270221	0.41535886	0.029037556	0.42152075	0.89147473	0.084981636	0.34491537	0.90658667	0.13046332	0.24396043	0.90229034	-0.017945717	0.34183392	0.9094491	-0.17185254	0.43103174	0.901966	-0.1147979	0.45496448	1.2450551	-0.017480532	0.39863403	1.3209904	0.13192268	0.34846902	1.2793303	-0.20902269	0.44246964	1.259113	0.08545713	0.44899976	1.2524753	-0.075679726	0.37962091	0.43677661	0.14608263	0.44042148	0.60967719	0.085332039	0.31718304	0.099184242	0.068727898	0.29444412	0.10081834	0.14945869	0.33317264	0.30935928	0.16379189	0.24441304	0.0329603	0.092167938	0.44986453	0.044141708	0.12180483
2053	20.52	0.35158459	0.41563098	0.02964315	0.42322308	0.89204193	0.085000626	0.34651566	0.90695654	0.13037175	0.24596513	0.90260742	-0.018218323	0.34387042	0.90969672	-0.17199127	0.43294211	0.90248773	-0.11476801	0.45456897	1.245933	-0.017575924	0.39777057	1.3215648	0.13181219	0.3478028	1.2795909	-0.2094209	0.44198068	1.2598943	0.085380409	0.44859274	1.2532417	-0.075826942	0.37836441	0.4370676	0.14670383	0.44074698	0.60932947	0.085815659	0.31703268	0.099318909	0.068843109	0.29428061	0.10079389	0.14953444	0.33220657	0.30945383	0.16419592	0.24443149	0.032886436	0.092123169	0.44984766	0.044149948	0.12181896
2054	20.53	0.35046503	0.41593753	0.030096945	0.42485764	0.89256799	0.085024689	0.34804361	0.90729907	0.13028073	0.2479101	0.90289532	-0.018490128	0.3458584	0.90990491	-0.17212315	0.43480255	0.90295251	-0.11472434	0.45418091	1.2467469	-0.017676168	0.39690952	1.3220812	0.1316897	0.34707947	1.2798878	-0.20999687	0.44148737	1.2606157	0.085299263	0.44818939	1.2539434	-0.075981606	0.37711838	0.43736026	0.14736652	0.44102893	0.60898657	0.086347694	0.31688812	0.09945472	0.068967461	0.29410437	0.10076434	0.14961525	0.33122498	0.30954205	0.16461526	0.24444096	0.032845875	0.092100952	0.44982703	0.04416119	0.12183655
2055	20.54	0.34928598	0.41628534	0.030336056	0.42642941	0.8930578	0.085052856	0.34950803	0.90761615	0.13018965	0.24979956	0.90315686	-0.01876062	0.34779935	0.91007739	-0.17224918	0.43661795	0.90336298	-0.11466798	0.45379669	1.2475037	-0.017781736	0.39604755	1.3225417	0.13155745	0.34628812	1.2802366	-0.21076782	0.44098773	1.2612809	0.085213699	0.44778812	1.254589	-0.076143303	0.37586078	0.43764661	0.14804727	0.44126782	0.60864478	0.086920189	0.31674661	0.09959169	0.069097992	0.29391492	0.1007284	0.14969952	0.33022946	0.30962561	0.16504649	0.24444275	0.032828331	0.092094063	0.44980399	0.044174141	0.12185651
2056	20.55	0.34798077	0.41669211	0.030258204	0.42794553	0.89351453	0.085083679	0.35091751	0.90790875	0.13009814	0.25163763	0.90339557	-0.019026463	0.34969434	0.91021765	-0.17236873	0.4383909	0.90372351	-0.1145995	0.45341364	1.2482079	-0.017892782	0.39518298	1.3229478	0.13141849	0.34543423	1.2806296	-0.21170982	0.44048215	1.2618934	0.085123352	0.44738837	1.255186	-0.076310997	0.3745704	0.43791824	0.14871935	0.44146286	0.60830115	0.087521782	0.31660507	0.099729813	0.069231575	0.29371399	0.1006866	0.14978571	0.32922406	0.30970636	0.16548561	0.24443893	0.032824379	0.09209655	0.44978	0.044188107	0.12187758
2057	20.56	0.3464819	0.41718219	0.029739117	0.42941571	0.89393976	0.0851147	0.35228198	0.90817639	0.1300071	0.25342844	0.90361499	-0.019282797	0.35154364	0.91032831	-0.17248114	0.44012274	0.90403839	-0.11451981	0.45302997	1.2488634	-0.018009335	0.39431592	1.3233011	0.13127559	0.34454282	1.2810323	-0.21274916	0.43997369	1.2624568	0.085027809	0.44698956	1.2557405	-0.076483505	0.37323334	0.43816843	0.14935767	0.44161209	0.60795367	0.08813958	0.31646063	0.099869041	0.06936618	0.29350464	0.10064028	0.14987329	0.32821317	0.30978641	0.1659283	0.24443153	0.032826637	0.092104057	0.44975598	0.044202984	0.12189866
2058	20.57	0.34473615	0.41777795	0.028666986	0.43085132	0.89433429	0.085142464	0.35361102	0.9084176	0.12991739	0.25517517	0.90381702	-0.019526423	0.35334619	0.91041223	-0.17258754	0.44181351	0.90431165	-0.11443169	0.45264447	1.249473	-0.018131813	0.39344775	1.3236036	0.13113075	0.34364459	1.2814038	-0.21379665	0.43946442	1.2629746	0.084926712	0.44658865	1.2562563	-0.076659981	0.37184451	0.43839218	0.14994048	0.44171448	0.6076012	0.088761269	0.3163118	0.1000094	0.069501358	0.29328983	0.1005904	0.14996318	0.32720038	0.30986771	0.16637155	0.24442221	0.032830383	0.092113731	0.44973239	0.0442192	0.12191924
2059	20.58	0.34273019	0.41848697	0.026999393	0.4322634	0.89469867	0.085162804	0.35490942	0.90863177	0.12982785	0.25687967	0.90400159	-0.01975816	0.3550997	0.91047229	-0.17269156	0.44346188	0.90454901	-0.11433996	0.45225558	1.2500389	-0.018261196	0.39258154	1.3238568	0.13098486	0.34276331	1.2817124	-0.21477979	0.43895432	1.2634492	0.084819588	0.44618112	1.2567365	-0.076840118	0.3704053	0.43858505	0.15045062	0.44177234	0.6072439	0.089376015	0.3161586	0.10015108	0.069638069	0.29307272	0.10053779	0.15005716	0.32618933	0.30995108	0.16681427	0.24441219	0.032833366	0.092123947	0.44970892	0.044237366	0.1219395
2060	20.59	0.34052783	0.41928445	0.024847488	0.43366165	0.89503302	0.085171463	0.35617657	0.90882135	0.12973526	0.25854288	0.90416656	-0.019981613	0.35680133	0.91051129	-0.17279762	0.44506638	0.90475781	-0.11425052	0.45186038	1.2505635	-0.018398834	0.39172156	1.3240635	0.13083766	0.34191083	1.2819409	-0.2156501	0.43844217	1.26388	0.084705452	0.44576297	1.2571814	-0.077024178	0.36892267	0.43874423	0.15087903	0.44179077	0.60688269	0.089974571	0.31600235	0.10029434	0.069777657	0.29285669	0.10048399	0.15015659	0.32518323	0.31003537	0.16725639	0.24440227	0.032834908	0.092133644	0.44968521	0.044258011	0.12196
2061	20.6	0.33829654	0.42010291	0.022546566	0.43505334	0.89533765	0.085164742	0.35741125	0.90898785	0.12963678	0.26016565	0.90430945	-0.020200064	0.35844858	0.91053217	-0.1729097	0.44662589	0.90494513	-0.11417016	0.45145508	1.251048	-0.018546059	0.39087198	1.3242263	0.13068831	0.34108203	1.2820914	-0.21639453	0.43792728	1.2642664	0.084582863	0.44533276	1.2575905	-0.077213249	0.36741016	0.43887054	0.15123123	0.44177725	0.6065188	0.090549721	0.315845	0.10043925	0.069921188	0.29264499	0.10043153	0.15026193	0.32418393	0.31011835	0.16769766	0.24439293	0.032835171	0.092142197	0.44966037	0.044281296	0.1219812
2062	20.61	0.3362644	0.4208494	0.020600885	0.43644333	0.89561121	0.085140167	0.35861752	0.90912946	0.12953305	0.26174808	0.90442676	-0.020415649	0.36004047	0.9105365	-0.17302992	0.44814059	0.90511658	-0.11410656	0.45103732	1.2514923	-0.018703588	0.39003622	1.3243496	0.13053555	0.34026764	1.282168	-0.21700748	0.43741098	1.2646086	0.084450523	0.44489053	1.2579606	-0.07740905	0.36588892	0.43896869	0.15152884	0.44174039	0.60615399	0.091095947	0.31568854	0.10058573	0.070069176	0.29243912	0.1003838	0.15037257	0.32319333	0.31019794	0.16813741	0.24438406	0.03283477	0.092149559	0.44963406	0.04430648	0.12200294
2063	20.62	0.33461356	0.42144254	0.01947537	0.43783347	0.8958504	0.085096855	0.35980405	0.90924103	0.12942798	0.26328955	0.90451544	-0.020630903	0.36157767	0.91052509	-0.17315822	0.44961218	0.90527478	-0.11406743	0.45060684	1.2518947	-0.018871216	0.38921686	1.3244377	0.13037817	0.33947409	1.2821525	-0.21744261	0.43689572	1.2649083	0.084307854	0.44443652	1.2582898	-0.077613205	0.36438275	0.43904474	0.15179762	0.44168845	0.60579108	0.091608521	0.31553473	0.10073348	0.070221443	0.29223862	0.10034418	0.15048717	0.32221527	0.31027332	0.16857477	0.24437538	0.032834301	0.092156212	0.44960681	0.044331947	0.12202415
2064	20.63	0.33340802	0.4218399	0.019385847	0.43922119	0.89605371	0.085035858	0.36097681	0.90931915	0.12932497	0.26478912	0.9045741	-0.020848791	0.36306235	0.91049731	-0.17329286	0.45104266	0.90542023	-0.11405849	0.45016476	1.2522532	-0.019048061	0.38841629	1.3244932	0.13021538	0.33871399	1.2820201	-0.21763725	0.43638419	1.2651675	0.084155289	0.44397171	1.2585768	-0.077826553	0.36291373	0.43910544	0.15205885	0.44162875	0.60543353	0.092083618	0.31538531	0.10088174	0.070376778	0.2920419	0.10031506	0.15060396	0.32125555	0.31034451	0.16900809	0.24436665	0.032834034	0.09216272	0.44957941	0.044356728	0.12204384
2065	20.64	0.33260693	0.42204474	0.020254442	0.44059885	0.89622559	0.084960251	0.36213315	0.90936554	0.12922359	0.26624628	0.90460229	-0.021071154	0.36449777	0.91045172	-0.1734321	0.45243292	0.9055517	-0.11408144	0.44971136	1.2525665	-0.019232965	0.38763681	1.3245179	0.13004758	0.33798663	1.2817716	-0.21756873	0.43587811	1.2653871	0.08399395	0.44349802	1.2588202	-0.07804866	0.36150348	0.43916052	0.15233162	0.4415686	0.60508374	0.092518471	0.31524133	0.10102899	0.070532867	0.29184741	0.10029736	0.15072107	0.32032126	0.31041214	0.16943361	0.24435785	0.032833942	0.092169434	0.4495527	0.044380989	0.12206186
2066	20.65	0.33212064	0.42209091	0.021835754	0.44195419	0.89637659	0.084874374	0.36326151	0.9093869	0.12911929	0.26766031	0.90459937	-0.021298878	0.36588733	0.91038599	-0.17357483	0.45378287	0.90566736	-0.11413304	0.4492464	1.2528346	-0.01942457	0.38688019	1.3245122	0.12987677	0.33727307	1.281441	-0.21727875	0.43537811	1.2655677	0.083825302	0.44301663	1.2590204	-0.078277641	0.36017065	0.43922009	0.15262889	0.44151514	0.60474365	0.092911148	0.31510339	0.10117298	0.07068647	0.29165515	0.10029036	0.15083698	0.31941928	0.31047748	0.16984494	0.24434908	0.032833904	0.09217627	0.44952768	0.044404408	0.12207845
